<svg width="93" height="93" viewBox="0 0 93 93" fill="none" xmlns="http://www.w3.org/2000/svg">
<g id="cookies-svgrepo-com 1" clip-path="url(#clip0_0_5)">
<g id="cookie">
<path id="Vector" d="M87.1207 45.1123L82.6994 45.9965C81.2281 46.2907 79.7493 45.5255 79.1399 44.1543L74.404 33.4982C74.0031 32.5959 73.209 31.929 72.2514 31.6894L69.7842 31.0727C68.3565 30.7158 67.3551 29.4332 67.3551 27.9616V10.8626C67.3551 10.0636 67.0566 9.29327 66.5184 8.70257L60.5617 2.16605C55.1912 0.465352 49.4019 -0.293361 43.3831 0.102979C20.2502 1.62694 1.51052 20.4449 0.098994 43.5847C-1.54794 70.587 19.8635 93 46.51 93C71.9257 93 92.5657 72.6063 92.99 47.2918L89.1839 45.3887C88.546 45.0696 87.82 44.9724 87.1207 45.1123Z" fill="#FFE6A1"/>
<g id="Group">
<path id="Vector_2" d="M60.941 78.5689C60.6587 78.5689 60.3806 78.5527 60.0996 78.5476C58.3377 80.524 55.7798 81.7757 52.9237 81.7757C48.7169 81.7757 45.1502 79.0711 43.843 75.3097C38.0888 73.0324 32.8986 69.6445 28.5367 65.4035C27.8768 65.6024 27.1914 65.7412 26.4667 65.7412C22.4817 65.7412 19.2512 62.5107 19.2512 58.5257C19.2512 57.134 19.6639 55.846 20.3465 54.7438C20.2976 54.6564 20.2455 54.5716 20.197 54.4839C15.1919 54.1445 11.2341 49.9877 11.2341 44.8965C11.2341 41.896 12.6084 39.2177 14.761 37.4532C14.557 35.6857 14.441 33.8914 14.441 32.0689C14.441 22.9234 17.0918 14.4021 21.6516 7.2106C8.64864 15.4549 0.00999069 29.9642 0.00999069 46.5C0.00999069 72.1813 20.8287 93 46.51 93C63.0458 93 77.5549 84.3614 85.7994 71.3585C78.6079 75.9182 70.0866 78.5689 60.941 78.5689Z" fill="#FFD796"/>
<path id="Vector_3" d="M36.0876 38.4828C38.3015 38.4828 40.0963 36.688 40.0963 34.4741C40.0963 32.2602 38.3015 30.4655 36.0876 30.4655C33.8737 30.4655 32.079 32.2602 32.079 34.4741C32.079 36.688 33.8737 38.4828 36.0876 38.4828Z" fill="#FFD796"/>
<path id="Vector_4" d="M78.579 64.9396C80.7929 64.9396 82.5876 63.1449 82.5876 60.931C82.5876 58.7171 80.7929 56.9224 78.579 56.9224C76.3651 56.9224 74.5704 58.7171 74.5704 60.931C74.5704 63.1449 76.3651 64.9396 78.579 64.9396Z" fill="#FFD796"/>
<path id="Vector_5" d="M42.1005 64.9396C43.6502 64.9396 44.9065 63.6834 44.9065 62.1337C44.9065 60.5839 43.6502 59.3277 42.1005 59.3277C40.5508 59.3277 39.2945 60.5839 39.2945 62.1337C39.2945 63.6834 40.5508 64.9396 42.1005 64.9396Z" fill="#FFD796"/>
<path id="Vector_6" d="M63.7471 39.2843C65.2968 39.2843 66.5531 38.0281 66.5531 36.4783C66.5531 34.9286 65.2968 33.6724 63.7471 33.6724C62.1974 33.6724 60.9412 34.9286 60.9412 36.4783C60.9412 38.0281 62.1974 39.2843 63.7471 39.2843Z" fill="#FFD796"/>
<path id="Vector_7" d="M52.523 14.431C54.0727 14.431 55.329 13.1747 55.329 11.625C55.329 10.0753 54.0727 8.81903 52.523 8.81903C50.9733 8.81903 49.717 10.0753 49.717 11.625C49.717 13.1747 50.9733 14.431 52.523 14.431Z" fill="#FFD796"/>
</g>
<g id="Group_2">
<path id="Vector_8" d="M44.1766 41.3026L42.323 44.3921C41.215 46.2386 42.206 48.6308 44.2951 49.1531L49.8126 50.5324C51.5309 50.962 53.2721 49.9174 53.7015 48.1991L54.3327 45.6743C54.4604 45.1635 54.4604 44.6295 54.3327 44.1187L53.6654 41.4492C53.2503 39.7884 51.6039 38.7465 49.9254 39.0822L46.2977 39.8077C45.4116 39.9851 44.6416 40.5279 44.1766 41.3026Z" fill="#B97850"/>
<path id="Vector_9" d="M53.4318 61.1535L51.4986 64.3755C50.5375 65.9774 51.1435 68.0584 52.8142 68.8938L58.9685 71.9709C60.8035 72.8886 63.0162 71.8707 63.5139 69.8804L64.1478 67.3447L64.8888 64.3806C65.3499 62.5358 64.1137 60.6971 62.231 60.4281L56.6348 59.6285C55.3579 59.4461 54.0955 60.0472 53.4318 61.1535Z" fill="#B97850"/>
<path id="Vector_10" d="M19.6922 42.024L17.3329 45.9564C16.5758 47.2182 16.7747 48.8334 17.8151 49.874L21.5282 53.5873C22.8798 54.9388 25.106 54.8155 26.3001 53.323L29.4834 49.3438C30.1086 48.5624 30.3331 47.5337 30.0902 46.5627L29.3642 43.6586C29.0636 42.4561 28.0973 41.5349 26.8821 41.2917L23.0709 40.5295C21.742 40.2636 20.3895 40.8619 19.6922 42.024Z" fill="#B97850"/>
<path id="Vector_11" d="M32.7482 15.9878L30.9289 19.0201C29.8733 20.7793 30.7183 23.0637 32.6646 23.7125L36.6126 25.0285C37.7649 25.4124 39.0353 25.1126 39.8943 24.2538L42.0193 22.1287C42.8158 21.3323 43.136 20.1761 42.8628 19.0834L42.307 16.8603C41.9501 15.4324 40.6673 14.4308 39.1957 14.4308H35.4978C34.3717 14.431 33.3278 15.0221 32.7482 15.9878Z" fill="#B97850"/>
<path id="Vector_12" d="M71.4785 40.7729L69.6223 42.6291C68.3701 43.8813 68.3701 45.9119 69.6223 47.1643L70.5307 48.0726C71.5068 49.0488 72.9977 49.2907 74.2325 48.6733L79.485 46.0472C80.8294 45.3749 81.5267 43.8593 81.1621 42.4011L80.9242 41.4495C80.5091 39.7888 78.8627 38.7469 77.1842 39.0825L73.1174 39.8959C72.4964 40.0198 71.9262 40.3251 71.4785 40.7729Z" fill="#B97850"/>
<path id="Vector_13" d="M59.5543 17.8836L57.4246 20.7234C56.6423 21.7664 56.5694 23.1795 57.2402 24.2975L59.2109 27.5818C60.1528 29.1519 62.2161 29.6158 63.7395 28.6002L67.7411 25.9325C69.273 24.9113 69.6323 22.8128 68.5277 21.34L66.3524 18.4396C65.961 17.9178 65.4199 17.5276 64.801 17.3214L63.1339 16.7656C61.8243 16.3288 60.3824 16.7792 59.5543 17.8836Z" fill="#B97850"/>
<path id="Vector_14" d="M32.1121 68.5485L30.0181 71.1659C28.6738 72.8463 29.3333 75.3475 31.3314 76.1469L34.1441 77.2719C34.9088 77.5778 35.7616 77.5778 36.5261 77.2719L39.6827 76.0092C41.5739 75.2528 42.2899 72.9476 41.1601 71.2527L40.6179 70.4395C40.3082 69.9751 39.883 69.5998 39.3839 69.35L36.0508 67.6835C34.6977 67.0072 33.0566 67.3678 32.1121 68.5485Z" fill="#B97850"/>
</g>
<g id="Group_3">
<path id="Vector_15" d="M25.5074 53.2063L21.7943 49.4932C20.7539 48.4528 20.5548 46.8375 21.3121 45.5758L23.6714 41.6434C23.8727 41.3081 24.1386 41.0359 24.4327 40.8019L23.0711 40.5298C21.7422 40.2641 20.3895 40.8624 19.6922 42.0244L17.3329 45.9567C16.5758 47.2185 16.7747 48.8337 17.8151 49.8743L21.5282 53.5874C22.781 54.8402 24.7751 54.81 26.012 53.6127C25.8347 53.4951 25.664 53.3631 25.5074 53.2063Z" fill="#A5694B"/>
<path id="Vector_16" d="M39.8244 23.8868L35.8764 22.571C33.9303 21.9222 33.0849 19.6379 34.1406 17.8787L35.9599 14.8464C36.0524 14.692 36.1746 14.565 36.2893 14.431H35.4977C34.3713 14.431 33.3274 15.022 32.7478 15.988L30.9285 19.0201C29.8728 20.7793 30.7178 23.0636 32.6643 23.7124L36.6122 25.0284C37.7645 25.4124 39.0349 25.1125 39.8939 24.2537L40.1927 23.9549C40.0699 23.9295 39.9453 23.9271 39.8244 23.8868Z" fill="#A5694B"/>
<path id="Vector_17" d="M52.8552 49.6104L47.3377 48.231C45.2485 47.7086 44.2575 45.3166 45.3657 43.47L47.2193 40.3805C47.44 40.0127 47.7332 39.7023 48.0712 39.4532L46.2977 39.808C45.4118 39.9851 44.6415 40.528 44.1766 41.3029L42.323 44.3924C41.215 46.239 42.206 48.6312 44.2951 49.1534L49.8126 50.5328C50.9749 50.8234 52.1374 50.4289 52.9074 49.6182C52.8899 49.6139 52.8727 49.6148 52.8552 49.6104Z" fill="#A5694B"/>
<path id="Vector_18" d="M62.2063 27.3044L60.2357 24.0201C59.5649 22.9021 59.6377 21.4893 60.42 20.446L62.5498 17.6064C62.783 17.2952 63.0725 17.0515 63.3864 16.8493L63.1337 16.7652C61.8241 16.3287 60.3823 16.7792 59.554 17.8834L57.4244 20.723C56.6421 21.7661 56.5693 23.1791 57.2401 24.2971L59.2107 27.5814C60.1496 29.1462 62.2016 29.6103 63.7233 28.6082C63.1136 28.3544 62.5737 27.9167 62.2063 27.3044Z" fill="#A5694B"/>
<path id="Vector_19" d="M73.1044 47.859C71.852 46.6066 71.852 44.5762 73.1044 43.3238L74.9606 41.4676C75.4081 41.0201 75.9783 40.7147 76.5993 40.5907L80.0223 39.9061C79.29 39.21 78.2443 38.8702 77.184 39.0823L73.1173 39.8957C72.4964 40.02 71.9262 40.3251 71.4785 40.7727L69.6223 42.6289C68.3701 43.8813 68.3701 45.9117 69.6223 47.1641L70.5307 48.0725C71.4464 48.9881 72.8087 49.228 73.9937 48.7487L73.1044 47.859Z" fill="#A5694B"/>
<path id="Vector_20" d="M56.7869 68.6247C55.1161 67.7894 54.51 65.7083 55.4712 64.1064L57.4044 60.8847C57.658 60.4623 58.0164 60.1421 58.4116 59.8825L56.6352 59.6288C55.3579 59.4462 54.0957 60.0471 53.432 61.1535L51.4988 64.3754C50.5377 65.9773 51.1436 68.0584 52.8144 68.8937L58.9687 71.9709C60.1953 72.5843 61.5796 72.3195 62.5185 71.4908L56.7869 68.6247Z" fill="#A5694B"/>
<path id="Vector_21" d="M37.3509 76.7359L34.5382 75.6108C32.5404 74.8118 31.8808 72.3102 33.225 70.6298L35.3189 68.0124C35.4519 67.8462 35.6012 67.7009 35.7589 67.5679C34.4681 67.0737 32.9903 67.4504 32.1121 68.5484L30.0181 71.1659C28.6738 72.8462 29.3333 75.3474 31.3314 76.1468L34.1441 77.2719C34.9088 77.5778 35.7616 77.5778 36.5261 77.2719L37.6481 76.8231C37.5488 76.7942 37.4476 76.7746 37.3509 76.7359Z" fill="#A5694B"/>
</g>
<path id="Vector_22" d="M12.8356 65.7397C12.5953 65.7397 12.3501 65.6851 12.1202 65.5706C11.3278 65.1745 11.0067 64.2116 11.403 63.4193L13.0066 60.2124C13.4029 59.4201 14.3634 59.1022 15.1579 59.4953C15.9502 59.8916 16.2714 60.8543 15.875 61.6467L14.2715 64.8535C13.9905 65.4155 13.4245 65.7397 12.8356 65.7397Z" fill="#C98850"/>
<path id="Vector_23" d="M41.6996 86.5861H40.0961C39.2106 86.5861 38.4926 85.869 38.4926 84.9826C38.4926 84.0963 39.2106 83.379 40.0961 83.379H41.6996C42.5851 83.379 43.3031 84.0961 43.3031 84.9826C43.3031 85.869 42.5851 86.5861 41.6996 86.5861Z" fill="#925F4A"/>
<path id="Vector_24" d="M35.2842 56.1206C35.0439 56.1206 34.7987 56.0659 34.5688 55.9515C33.7764 55.5551 33.4553 54.5923 33.8516 53.8001L35.4552 50.5933C35.8506 49.8026 36.8113 49.4831 37.6065 49.8761C38.3988 50.2725 38.72 51.2352 38.3236 52.0275L36.7201 55.2344C36.4391 55.7965 35.8729 56.1206 35.2842 56.1206Z" fill="#C98850"/>
<g id="Group_4">
<path id="Vector_25" d="M25.6636 30.4655C25.4233 30.4655 25.1781 30.4108 24.9482 30.2964L21.7413 28.6929C20.949 28.2965 20.6278 27.3338 21.0242 26.5415C21.4196 25.7508 22.381 25.4297 23.1755 25.8244L26.3824 27.4277C27.1747 27.8241 27.4959 28.7868 27.0995 29.5791C26.8185 30.1413 26.2523 30.4655 25.6636 30.4655Z" fill="#925F4A"/>
<path id="Vector_26" d="M44.9066 8.01707H41.6998C40.8143 8.01707 40.0963 7.29996 40.0963 6.41355C40.0963 5.52714 40.8143 4.81003 41.6998 4.81003H44.9066C45.7921 4.81003 46.5102 5.52714 46.5102 6.41355C46.5102 7.29996 45.7921 8.01707 44.9066 8.01707Z" fill="#925F4A"/>
</g>
<path id="Vector_27" d="M51.322 32.0688C50.7331 32.0688 50.1671 31.7448 49.8861 31.1826L48.2826 27.9757C47.8863 27.1834 48.2074 26.2204 48.9997 25.8244C49.7937 25.4297 50.7558 25.7508 51.1511 26.5415L52.7546 29.7484C53.151 30.5407 52.8298 31.5038 52.0375 31.8997C51.8072 32.0142 51.5623 32.0688 51.322 32.0688Z" fill="#C98850"/>
<g id="Group_5">
<path id="Vector_28" d="M7.31757 39.9204C7.10197 39.8142 6.90634 39.6567 6.75031 39.4523C6.21447 38.7468 6.35233 37.7411 7.05801 37.2054L9.91376 35.0374C10.6187 34.5014 11.6237 34.6405 12.1607 35.3451C12.6965 36.0506 12.5586 37.0563 11.853 37.592L8.99739 39.7599C8.4966 40.1398 7.8456 40.1805 7.31757 39.9204Z" fill="#925F4A"/>
<path id="Vector_29" d="M67.3549 57.7241C66.9446 57.7241 66.5342 57.5675 66.2213 57.2544L63.0144 54.0475C62.3881 53.4212 62.3881 52.4064 63.0144 51.7801C63.6407 51.1538 64.6555 51.1538 65.2818 51.7801L68.4887 54.987C69.115 55.6133 69.115 56.6281 68.4887 57.2544C68.1753 57.5675 67.765 57.7241 67.3549 57.7241Z" fill="#925F4A"/>
</g>
<path id="Vector_30" d="M70.5618 73.7586C70.1514 73.7586 69.7411 73.6021 69.4281 73.2889C68.8018 72.6626 68.8018 71.6478 69.4281 71.0215L71.0317 69.418C71.658 68.7917 72.6728 68.7917 73.2991 69.418C73.9254 70.0443 73.9254 71.0591 73.2991 71.6854L71.6956 73.2889C71.3822 73.6021 70.9721 73.7586 70.5618 73.7586Z" fill="#C98850"/>
</g>
<g id="crumbs">
<g id="Group_6">
<path id="Vector_31" d="M74.0002 6.60352V10.649C74.0002 11.7836 75.1458 12.5592 76.1991 12.1378L81.0095 10.2136C81.6182 9.97005 82.0174 9.38045 82.0174 8.7249V6.60352C82.0174 5.71803 81.2994 5 80.4139 5H75.6035C74.7182 5 74.0002 5.71803 74.0002 6.60352Z" fill="#FFE6A1"/>
<path id="Vector_32" d="M77.4283 19.2446L76.4051 26.4074C76.1644 28.0923 77.2821 29.6719 78.9508 30.0056L81.8874 30.5928C83.1618 30.8478 84.4638 30.3084 85.1847 29.227L86.2891 27.5705C86.8611 26.7122 86.9857 25.6313 86.6235 24.6657L83.2782 15.7451C82.8621 14.6357 81.4389 14.3274 80.601 15.1653L78.3356 17.4306C77.8448 17.9212 77.5266 18.5578 77.4283 19.2446Z" fill="#FFE6A1"/>
</g>
<g id="Group_7">
<path id="Vector_33" d="M85.467 27.7445L82.5304 27.1573C80.8615 26.8234 79.744 25.2439 79.9847 23.5591L81.0079 16.3965C81.0993 15.7577 81.3971 15.1742 81.8305 14.6994C81.3953 14.6774 80.9485 14.8175 80.601 15.1648L78.3354 17.4302C77.8448 17.9208 77.5264 18.5575 77.4285 19.2443L76.4053 26.4069C76.1646 28.092 77.2823 29.6713 78.951 30.005L81.8876 30.5923C83.1618 30.8469 84.464 30.3078 85.1849 29.2265L86.151 27.7774C85.9236 27.7819 85.696 27.7905 85.467 27.7445Z" fill="#FFD796"/>
<path id="Vector_34" d="M79.406 8.9307C78.3527 9.35193 77.207 8.57632 77.207 7.44198V5H75.6035C74.718 5 74 5.71803 74 6.60352V10.649C74 11.7836 75.1456 12.5592 76.1989 12.1378L81.0093 10.2136C81.618 9.97005 82.0173 9.38063 82.0173 8.7249V7.88627L79.406 8.9307Z" fill="#FFD796"/>
<path id="Vector_35" d="M86.0237 35.1598L85.0759 37.0554C84.8503 37.5068 84.8503 38.0381 85.0759 38.4894L85.5084 39.3548C85.9398 40.2174 87.0295 40.5069 87.8319 39.972L90.4169 38.2488C90.863 37.9512 91.1309 37.4506 91.1309 36.9146V35.187C91.1309 34.0927 90.0587 33.3198 89.0204 33.666L86.9506 34.3559C86.5474 34.4901 86.2139 34.7793 86.0237 35.1598Z" fill="#FFD796"/>
</g>
</g>
</g>
<defs>
<clipPath id="clip0_0_5">
<rect width="93" height="93" fill="white"/>
</clipPath>
</defs>
</svg>
